<svg xmlns="http://www.w3.org/2000/svg" width="1680" height="387" viewBox="0 0 1680 387" fill="none"><script xmlns=""/>
    <path fill-rule="evenodd" clip-rule="evenodd" d="M0 99H70V169H132V134H202V163V170V204H264V169H334V204H400V387H0V99ZM70 208H132V239H70V208ZM264 208H202V239H264V208ZM334 208H396V239H334V208ZM198 173H136V204H198V173ZM70 173H132V204H70V173ZM198 138H136V169H198V138ZM4 138H66V169H4V138ZM66 103H4V134H66V103ZM268 173H330V204H268V173Z" fill="white"/>
    <path fill-rule="evenodd" clip-rule="evenodd" d="M1280 210L1279 387H1680V35H1614V0H1544V35H1478V74H1544V105H1412V140H1346V210H1280ZM1284 214H1346V245H1284V214ZM1350 144H1412V175H1350V144ZM1412 179H1350V210H1412V179ZM1482 179H1544V210H1482V179ZM1544 214H1482V245H1544V214ZM1548 214H1610V245H1548V214ZM1412 214H1350V245H1412V214ZM1416 144H1478V175H1416V144ZM1478 109H1416V140H1478V109ZM1482 109H1544V140H1482V109ZM1544 39H1482V70H1544V39ZM1548 74H1610V105H1548V74ZM1610 39H1548V70H1610V39ZM1614 39H1676V70H1614V39ZM1610 4H1548V35H1610V4Z" fill="white"/>
    <path d="M1346 249H1284V280H1346V249Z" fill="#9F9F9E"/>
    <path d="M1544 249H1482V280H1544V249Z" fill="#AA0129"/>
    <path d="M1544 284H1482V315H1544V284Z" fill="#F1F1F1"/>
    <path d="M1544 319H1482V350H1544V319Z" fill="#9F9F9E"/>
    <path d="M1544 354H1482V357H1544V354Z" fill="#9F9F9E"/>
    <path d="M1544 359.5H1482V362.5H1544V359.5Z" fill="#9F9F9E"/>
    <path d="M1544 365H1482V368H1544V365Z" fill="#9F9F9E"/>
    <path d="M1544 370.5H1482V373.5H1544V370.5Z" fill="#9F9F9E"/>
    <path d="M1544 376H1482V379H1544V376Z" fill="#9F9F9E"/>
    <path d="M1544 381.5H1482V384.5H1544V381.5Z" fill="#9F9F9E"/>
    <path d="M1610 319H1548V350H1610V319Z" fill="#AA0129"/>
    <path d="M132 354H70V385H132V354Z" fill="#9F9F9E"/>
    <path d="M264 243H202V274H264V243Z" fill="#9F9F9E"/>
    <path d="M330 278H268V309H330V278Z" fill="#AA0129"/>
    <path d="M330 243H268V246H330V243Z" fill="#9F9F9E"/>
    <path d="M330 248.5H268V251.5H330V248.5Z" fill="#9F9F9E"/>
    <path d="M330 254H268V257H330V254Z" fill="#9F9F9E"/>
    <path d="M330 259.5H268V262.5H330V259.5Z" fill="#9F9F9E"/>
    <path d="M330 265H268V268H330V265Z" fill="#9F9F9E"/>
    <path d="M330 270.5H268V273.5H330V270.5Z" fill="#9F9F9E"/>
    <path d="M132 319H70V322H132V319Z" fill="#9F9F9E"/>
    <path d="M132 324.5H70V327.5H132V324.5Z" fill="#9F9F9E"/>
    <path d="M132 330H70V333H132V330Z" fill="#9F9F9E"/>
    <path d="M132 335.5H70V338.5H132V335.5Z" fill="#9F9F9E"/>
    <path d="M132 341H70V344H132V341Z" fill="#9F9F9E"/>
    <path d="M132 346.5H70V349.5H132V346.5Z" fill="#9F9F9E"/>
    <script xmlns=""/></svg>