<svg width="24" height="24" viewBox="0 0 24 24" fill="none" xmlns="http://www.w3.org/2000/svg">
    <g clip-path="url(#clip0_2103_600)">
        <path
            d="M1.50008 1.6329C-0.385923 3.5919 7.7188e-05 5.6729 7.7188e-05 11.9949C7.7188e-05 17.2449 -0.915923 22.5079 3.87808 23.7469C5.37508 24.1319 18.6391 24.1319 20.1341 23.7449C22.1301 23.2299 23.7541 21.6109 23.9761 18.7879C24.0071 18.3939 24.0071 5.6029 23.9751 5.2009C23.7391 2.1939 21.8881 0.460901 19.4491 0.109901C18.8901 0.0289014 18.7781 0.00490144 15.9101 -9.85637e-05C5.73708 0.00490144 3.50708 -0.448099 1.50008 1.6329Z"
            fill="url(#paint0_linear_2103_600)" />
        <path
            d="M11.9981 3.13892C8.36706 3.13892 4.91906 2.81592 3.60206 6.19592C3.05806 7.59192 3.13706 9.40492 3.13706 12.0009C3.13706 14.2789 3.06406 16.4199 3.60206 17.8049C4.91606 21.1869 8.39206 20.8629 11.9961 20.8629C15.4731 20.8629 19.0581 21.2249 20.3911 17.8049C20.9361 16.3949 20.8561 14.6089 20.8561 12.0009C20.8561 8.53892 21.0471 6.30392 19.3681 4.62592C17.6681 2.92592 15.3691 3.13892 11.9941 3.13892H11.9981ZM11.2041 4.73592C18.7781 4.72392 19.7421 3.88192 19.2101 15.5789C19.0211 19.7159 15.8711 19.2619 11.9991 19.2619C4.93906 19.2619 4.73606 19.0599 4.73606 11.9969C4.73606 4.85192 5.29606 4.73992 11.2041 4.73392V4.73592ZM16.7281 6.20692C16.1411 6.20692 15.6651 6.68292 15.6651 7.26992C15.6651 7.85692 16.1411 8.33292 16.7281 8.33292C17.3151 8.33292 17.7911 7.85692 17.7911 7.26992C17.7911 6.68292 17.3151 6.20692 16.7281 6.20692ZM11.9981 7.44992C9.48506 7.44992 7.44806 9.48792 7.44806 12.0009C7.44806 14.5139 9.48506 16.5509 11.9981 16.5509C14.5111 16.5509 16.5471 14.5139 16.5471 12.0009C16.5471 9.48792 14.5111 7.44992 11.9981 7.44992ZM11.9981 9.04692C15.9031 9.04692 15.9081 14.9549 11.9981 14.9549C8.09406 14.9549 8.08806 9.04692 11.9981 9.04692Z"
            fill="white" />
    </g>
    <defs>
        <linearGradient id="paint0_linear_2103_600" x1="1.5461" y1="22.467" x2="23.8516"
            y2="3.16188" gradientUnits="userSpaceOnUse">
            <stop stop-color="#FFDD55" />
            <stop offset="0.5" stop-color="#FF543E" />
            <stop offset="1" stop-color="#C837AB" />
        </linearGradient>
        <clipPath id="clip0_2103_600">
            <rect width="24" height="24" fill="white" />
        </clipPath>
    </defs>
</svg>
    