<svg viewBox="0 0 18 14" fill="none" xmlns="http://www.w3.org/2000/svg" style="stroke: none;">
    <path
        d="M14.165.333H3.833A3.17 3.17 0 0 0 .666 3.504v7.178a3.169 3.169 0 0 0 3.167 3.167h10.332a3.169 3.169 0 0 0 3.168-3.167V3.504a3.17 3.17 0 0 0-3.168-3.17Zm.375 3.907-3.985 3.333a2.516 2.516 0 0 1-3.105.065l-.013-.01c-.003-.003-.01-.006-.016-.013L3.26 4.246a.843.843 0 0 1-.124-1.191.846.846 0 0 1 1.188-.124l4.15 3.36a.82.82 0 0 0 .996-.023l3.985-3.327a.852.852 0 0 1 1.191.107c.3.358.25.892-.107 1.192Z"
        fill="#AA0129"></path>
</svg>