<svg width="24" height="14" viewBox="0 0 24 14" fill="none" xmlns="http://www.w3.org/2000/svg">
    <path
        d="M19.915 8.02792C19.527 7.53792 19.638 7.31992 19.915 6.88192C19.92 6.87692 23.123 2.45092 23.453 0.949924L23.455 0.948924C23.619 0.401924 23.455 -7.62939e-05 22.662 -7.62939e-05H20.038C19.37 -7.62939e-05 19.062 0.344924 18.897 0.730924C18.897 0.730924 17.561 3.92892 15.671 6.00192C15.061 6.60092 14.779 6.79292 14.446 6.79292C14.282 6.79292 14.027 6.60092 14.027 6.05392V0.948924C14.027 0.292924 13.84 -7.62939e-05 13.287 -7.62939e-05H9.161C8.742 -7.62939e-05 8.493 0.305924 8.493 0.590924C8.493 1.21292 9.438 1.35592 9.536 3.10592V6.90292C9.536 7.73492 9.385 7.88792 9.05 7.88792C8.158 7.88792 5.993 4.67692 4.71 1.00192C4.451 0.288924 4.198 0.000923634 3.525 0.000923634H0.9C0.151 0.000923634 0 0.345924 0 0.731924C0 1.41392 0.892 4.80492 4.148 9.28492C6.318 12.3429 9.374 13.9999 12.154 13.9999C13.825 13.9999 14.029 13.6319 14.029 12.9989C14.029 10.0769 13.878 9.80092 14.715 9.80092C15.103 9.80092 15.771 9.99292 17.331 11.4679C19.114 13.2169 19.407 13.9999 20.405 13.9999H23.029C23.777 13.9999 24.156 13.6319 23.938 12.9059C23.439 11.3789 20.067 8.23792 19.915 8.02792Z"
        fill="#4B729F" />
</svg>
    