<svg width="24" height="18" viewBox="0 0 24 18" fill="none" xmlns="http://www.w3.org/2000/svg">
    <path
        d="M0.521952 14.874C1.01195 16.612 2.51095 16.93 2.61095 16.991C5.07795 17.663 18.906 17.665 21.41 16.991C23.125 16.495 23.44 14.974 23.499 14.874C24.152 11.4 24.195 6.87101 23.469 2.92901L23.499 3.12501C23.009 1.38701 21.51 1.06901 21.41 1.00801C18.976 0.347007 5.11195 0.322007 2.61095 1.00801C0.895952 1.50501 0.580952 3.02501 0.521952 3.12501C-0.177048 6.77601 -0.212048 10.965 0.521952 14.874ZM9.60795 12.651V5.35801L15.874 9.01001L9.60795 12.651Z"
        fill="#E53935" />
</svg>
    